# xmcd
#
# Track frame offsets:
#	150
#	15773
#	32658
#	52460
#	68653
#	84503
#	101405
#	118973
#	138398
#	160295
#	179878
#	195800
#	213913
#	228818
#	242305
#
# Disc length: 3401
#
# Revision: 1
# Processed by: cddbd v1.5.2PL0 Copyright (c) Steve Scherf et al.
# Submitted via: kJams Pro (development) 1.0patch48
#
DISCID=c00d470f
DTITLE=Various Artist - MM6017
DYEAR=1993
DGENRE=Country
TTITLE0=Brooks and Dunn - BOOT SCOOTIN' BOOGIE...E
TTITLE1=Lorrie Morgan - A Picture of Me Without You
TTITLE2=Garth Brooks - We Shall Be Free
TTITLE3=Pam Tillis - Shake The Sugar Tree
TTITLE4=Hal Ketchum - Sure Love
TTITLE5=Reba McIntire - For My Broken Heart
TTITLE6=Billy Dean - Only the Wind
TTITLE7=Trisha Yearwood - She's in Love with the Boy
TTITLE8=Reba McIntire - Fancy
TTITLE9=Billy Ray Cyrus - Some Gave All
TTITLE10=Patti Loveless - Jealous Bone
TTITLE11=Wynonna - I Saw the Light
TTITLE12=Collin Raye - In this Life
TTITLE13=Joe Diffie - Next Thing Smokin'
TTITLE14=Trisha Yearwood - Wrong Side of Memphis
EXTD=
EXTT0=
EXTT1=
EXTT2=
EXTT3=
EXTT4=
EXTT5=
EXTT6=
EXTT7=
EXTT8=
EXTT9=
EXTT10=
EXTT11=
EXTT12=
EXTT13=
EXTT14=
PLAYORDER=
